<svg width="482" height="315" viewBox="0 0 482 315" fill="none" xmlns="http://www.w3.org/2000/svg">
<g id="01">
<g id="Group 3">
<g id="Bg">
<path id="Path" d="M197.704 157.134H16.7361C7.49301 157.134 0 149.633 0 140.379C0 131.125 7.49301 123.624 16.7361 123.624H52.3003C57.5555 121.898 60.2416 117.843 60.2416 113.118C60.2416 106.793 55.4802 101.691 46.2168 101.691H45.4218C36.1787 101.691 28.6857 94.1892 28.6857 84.9355C28.6857 75.6818 36.1787 68.1802 45.4218 68.1802H157.771C167.014 68.1802 174.507 75.6818 174.507 84.9355C174.507 94.1892 167.014 101.691 157.771 101.691H143.311C134.106 101.691 129.353 106.793 129.353 113.118C129.353 117.843 132.04 121.898 137.27 123.624H197.704C206.947 123.624 214.44 131.125 214.44 140.379C214.44 149.633 206.947 157.134 197.704 157.134Z" fill="#E6E7F4"/>
<path id="Path_2" d="M313.384 238.431H435.29C440.64 238.612 445.662 235.858 448.391 231.247C451.119 226.637 451.119 220.903 448.391 216.293C445.662 211.682 440.64 208.928 435.29 209.109H433.072C424.98 209.109 420.813 204.636 420.813 199.123C420.813 194.934 423.156 191.416 427.725 189.908H466.511C471.861 190.089 476.883 187.335 479.612 182.724C482.341 178.113 482.341 172.38 479.612 167.769C476.883 163.159 471.861 160.405 466.511 160.586H229.887C221.992 160.853 215.73 167.338 215.73 175.247C215.73 183.155 221.992 189.64 229.887 189.908H331.241C335.819 191.432 338.162 194.984 338.162 199.123C338.162 204.644 333.978 209.118 325.902 209.118H313.35C308 208.936 302.978 211.691 300.249 216.301C297.521 220.912 297.521 226.645 300.249 231.256C302.978 235.866 308 238.62 313.35 238.439L313.384 238.431Z" fill="#E6E7F4"/>
</g>
<path id="Rectangle" d="M73.5049 107.712C71.4318 99.8681 76.1076 91.8279 83.9507 89.7504L346.005 20.3351C353.855 18.2559 361.903 22.9363 363.977 30.7868L407.82 196.679C409.893 204.524 405.217 212.564 397.374 214.641L135.319 284.057C127.47 286.136 119.422 281.456 117.347 273.605L73.5049 107.712Z" fill="#5C36CC"/>
<path id="Path_3" d="M178.34 64.7621L302.087 0.471978C303.214 -0.114756 304.547 -0.156552 305.709 0.35838C306.872 0.873312 307.737 1.88915 308.061 3.11932L314.798 28.6293L178.34 64.7621Z" fill="#00C69D"/>
<path id="Path_4" d="M381.198 95.9941L332.831 108.804C329.178 109.774 326.999 113.522 327.961 117.181L335.935 147.341C336.399 149.099 337.541 150.6 339.111 151.514C340.68 152.429 342.548 152.681 344.303 152.217L392.671 139.407L381.198 95.9941Z" fill="#4F2CB6"/>
<path id="Path_5" d="M178.34 64.7621L317.492 8.46423C318.606 8.01298 319.86 8.06309 320.935 8.60179C322.009 9.14049 322.801 10.1158 323.107 11.2791L326.848 25.4374L178.34 64.7621Z" fill="#00D9A6"/>
<path id="Rectangle_2" d="M322.921 113.603C321.942 109.943 324.113 106.182 327.772 105.2L383.316 90.295C386.978 89.3123 390.743 91.4856 391.723 95.1481L399.844 125.48C400.824 129.139 398.653 132.901 394.994 133.883L339.45 148.788C335.788 149.77 332.023 147.597 331.042 143.935L322.921 113.603Z" fill="#7550E2"/>
<path id="Oval" d="M348.212 134.774C354.303 134.774 359.241 129.831 359.241 123.732C359.241 117.634 354.303 112.691 348.212 112.691C342.121 112.691 337.183 117.634 337.183 123.732C337.183 129.831 342.121 134.774 348.212 134.774Z" fill="white"/>
<path id="Path_6" d="M94.5591 187.445L116.249 269.546C130.898 265.667 142.368 254.258 146.337 239.618C150.306 224.977 146.172 209.329 135.492 198.567C124.812 187.805 109.208 183.566 94.5591 187.445Z" fill="#5E32D0"/>
<path id="Oval_2" d="M102.542 260.087C125.964 260.087 144.951 241.078 144.951 217.629C144.951 194.18 125.964 175.171 102.542 175.171C79.1201 175.171 60.1328 194.18 60.1328 217.629C60.1328 241.078 79.1201 260.087 102.542 260.087Z" fill="#AF95FC"/>
<path id="Shape" fill-rule="evenodd" clip-rule="evenodd" d="M92.358 193.753C93.1084 193.406 93.9666 193.374 94.7405 193.665C95.5143 193.957 96.1392 194.546 96.4751 195.303L96.8182 196.065C99.7573 195.19 102.832 194.863 105.889 195.102C107.743 195.212 109.281 196.579 109.61 198.409C109.94 200.238 108.977 202.057 107.278 202.809C106.612 203.109 105.881 203.235 105.153 203.178C103.366 203.035 101.568 203.102 99.7972 203.379L103.546 211.656C112.826 210.14 117.897 211.916 120.659 218.015C123.42 224.113 120.517 230.162 113.964 234.041L115.27 236.923C115.729 237.935 115.614 239.114 114.968 240.018C114.322 240.922 113.244 241.412 112.14 241.304C111.035 241.196 110.072 240.507 109.613 239.495L108.282 236.546C104.256 237.773 100.014 238.13 95.8391 237.593C93.9907 237.405 92.4997 235.996 92.2054 234.159C91.9111 232.323 92.8871 230.518 94.5839 229.76C95.3741 229.448 96.2382 229.376 97.0692 229.551C99.8418 230.026 102.678 229.989 105.437 229.442L101.521 220.779C92.7262 222.203 87.5045 220.963 84.5674 214.479C81.8561 208.489 84.5674 202.382 91.1446 198.562L90.8434 197.908C90.4837 197.158 90.4416 196.293 90.7266 195.511C91.0117 194.729 91.5999 194.095 92.358 193.753ZM97.7889 212.561L94.4417 205.205C92.0066 206.772 91.4543 208.598 92.2409 210.341C93.0275 212.083 94.3078 212.795 97.7889 212.561ZM110.651 227.314L107.22 219.774C110.625 219.497 112.132 220.26 112.91 222.027C113.797 223.963 113.035 225.772 110.651 227.314Z" fill="white"/>
<path id="Oval_3" d="M52.5181 177.458C63.0876 177.458 71.6559 168.88 71.6559 158.299C71.6559 147.717 63.0876 139.139 52.5181 139.139C41.9486 139.139 33.3804 147.717 33.3804 158.299C33.3804 168.88 41.9486 177.458 52.5181 177.458Z" fill="#AF95FC"/>
<path id="Shape_2" fill-rule="evenodd" clip-rule="evenodd" d="M55.2709 146.914C55.6359 146.992 55.9545 147.213 56.1557 147.528C56.3569 147.842 56.424 148.225 56.342 148.589L56.2583 148.958C57.5583 149.433 58.7586 150.146 59.798 151.061C60.4336 151.602 60.6184 152.508 60.2458 153.256C59.8733 154.004 59.0395 154.401 58.2248 154.219C57.9151 154.143 57.6281 153.993 57.388 153.783C56.7836 153.244 56.1146 152.783 55.3964 152.409L54.5596 156.414C58.3252 158.374 59.6809 160.385 59.0365 163.334C58.3922 166.283 55.6893 167.69 52.3421 167.33L52.0325 168.729C51.9248 169.218 51.5646 169.613 51.0875 169.764C50.6104 169.916 50.0888 169.801 49.7193 169.463C49.3498 169.125 49.1885 168.615 49.2961 168.126L49.6057 166.702C47.8201 166.053 46.1917 165.034 44.8276 163.711C44.3351 163.263 44.1237 162.583 44.2753 161.935C44.3767 161.453 44.6691 161.033 45.0855 160.771C45.5019 160.509 46.0067 160.427 46.4844 160.544C46.8514 160.636 47.1833 160.834 47.4384 161.114C48.2731 162.037 49.2683 162.8 50.3756 163.367L51.2961 159.178C47.7313 157.319 46.1748 155.459 46.8694 152.317C47.5053 149.418 50.1413 147.952 53.5638 148.346L53.6391 148.028C53.7061 147.662 53.9162 147.339 54.2227 147.13C54.5293 146.92 54.9067 146.843 55.2709 146.914ZM52.1664 155.182L52.9446 151.622C51.6392 151.53 50.9446 152.041 50.7605 152.887C50.5764 153.733 50.8275 154.336 52.1664 155.182ZM52.794 164.004L53.6308 160.343C54.9362 161.156 55.2458 161.742 55.0366 162.697C54.8274 163.652 54.0659 164.088 52.794 164.004Z" fill="white"/>
<path id="Oval_4" d="M411.901 80.8305C423.677 80.8305 433.223 71.2734 433.223 59.4842C433.223 47.695 423.677 38.1379 411.901 38.1379C400.125 38.1379 390.579 47.695 390.579 59.4842C390.579 71.2734 400.125 80.8305 411.901 80.8305Z" fill="#AF95FC"/>
<path id="Shape_3" fill-rule="evenodd" clip-rule="evenodd" d="M406.688 47.5126C407.062 47.3367 407.492 47.3183 407.88 47.4615C408.268 47.6048 408.583 47.8977 408.755 48.275L408.93 48.6604C410.406 48.2109 411.952 48.0377 413.491 48.1493C414.421 48.203 415.195 48.8853 415.365 49.8023C415.536 50.7194 415.059 51.6346 414.21 52.0198C413.878 52.1724 413.513 52.2387 413.148 52.2125C412.248 52.1441 411.344 52.1835 410.453 52.3298L412.361 56.5186C417.022 55.6808 419.574 56.6024 420.989 59.6602C422.403 62.7181 420.947 65.7675 417.683 67.7363L418.353 69.1856C418.647 69.9562 418.293 70.8228 417.545 71.1676C416.797 71.5124 415.909 71.2172 415.516 70.4925L414.838 69.0181C412.814 69.6437 410.681 69.835 408.579 69.5794C407.653 69.4835 406.905 68.7795 406.752 67.8599C406.6 66.9403 407.081 66.0322 407.926 65.6419C408.315 65.4826 408.742 65.4362 409.156 65.5078C410.544 65.7373 411.962 65.7117 413.34 65.4324L411.34 61.0844C406.922 61.8301 404.294 61.2185 402.796 57.9679C401.416 54.9687 402.796 51.8858 406.052 49.9505L405.901 49.6238C405.716 49.2408 405.695 48.7986 405.843 48.3998C405.992 48.0011 406.297 47.6806 406.688 47.5126ZM409.499 56.971L407.826 53.2848C406.604 54.1226 406.336 54.9604 406.738 55.8735C407.139 56.7867 407.742 57.0967 409.499 56.971ZM416.01 64.3685L414.261 60.5734V60.5566C415.976 60.3891 416.662 60.6991 417.123 61.696C417.583 62.6929 417.198 63.581 416.01 64.3685Z" fill="white"/>
<path id="Path_7" d="M396.479 308.125C396.479 311.56 286.163 314.358 212.03 314.358C137.897 314.358 111.245 311.56 111.245 308.125C111.245 304.69 137.872 301.9 212.03 301.9C286.188 301.9 396.479 304.69 396.479 308.125Z" fill="#E6E7F4"/>
</g>
</g>
</svg>
