<svg width="485" height="321" viewBox="0 0 485 321" fill="none" xmlns="http://www.w3.org/2000/svg">
<g id="02">
<g id="Group">
<path id="Path" d="M251.862 147.197H17.6875C7.91895 147.197 0 139.27 0 129.491C0 119.713 7.91895 111.785 17.6875 111.785H46.4711C52.0301 109.964 54.8528 105.679 54.8528 100.678C54.8528 93.9931 49.7993 88.5947 40.0242 88.5947H39.2012C29.4327 88.5947 21.5137 80.6676 21.5137 70.889C21.5137 61.1104 29.4327 53.1833 39.2012 53.1833H209.629C215.948 53.1833 221.787 56.558 224.947 62.0362C228.106 67.5143 228.106 74.2637 224.947 79.7419C221.787 85.22 215.948 88.5947 209.629 88.5947H194.338C184.614 88.5947 179.575 93.9931 179.575 100.678C179.575 105.679 182.412 109.964 187.949 111.793H251.862C258.182 111.793 264.021 115.167 267.18 120.646C270.34 126.124 270.34 132.873 267.18 138.351C264.021 143.829 258.182 147.204 251.862 147.204V147.197Z" fill="#E6E7F4"/>
<path id="Path_2" d="M248.284 281.425H430.384C436.611 281.568 442.426 278.325 445.581 272.95C448.737 267.575 448.737 260.912 445.581 255.537C442.426 250.162 436.611 246.919 430.384 247.062H427.781C418.304 247.062 413.412 241.823 413.412 235.34C413.412 230.48 416.16 226.323 421.52 224.52H466.968C473.195 224.662 479.01 221.419 482.165 216.044C485.32 210.67 485.32 204.006 482.165 198.632C479.01 193.257 473.195 190.014 466.968 190.156H150.442C141.115 190.37 133.665 198 133.665 207.338C133.665 216.676 141.115 224.306 150.442 224.52H288.814C294.174 226.323 296.922 230.471 296.922 235.34C296.922 241.805 292.03 247.062 282.562 247.062H248.284C238.802 247.062 231.114 254.756 231.114 264.248C231.114 273.74 238.802 281.434 248.284 281.434V281.425Z" fill="#E6E7F4"/>
</g>
<g id="Group 2">
<rect id="Rectangle" x="116.819" width="245.547" height="106.787" fill="#EDEEF7"/>
<rect id="Rectangle_2" x="143.845" y="213.573" width="245.547" height="106.787" fill="#EDEEF7"/>
<path id="Path_3" d="M389.401 213.573H143.845L116.819 106.787H362.375L389.401 213.573Z" fill="white"/>
<path id="Combined Shape" fill-rule="evenodd" clip-rule="evenodd" d="M211.355 80.3581C211.354 80.9731 211.645 81.5519 212.139 81.9181C214.202 83.4032 216.678 84.2042 219.22 84.2083C223.291 84.2083 226.156 82.0984 226.156 78.3474V78.2933C226.156 74.9931 223.994 73.6135 220.165 72.6127C216.895 71.7831 216.085 71.3774 216.085 70.133V70.0789C216.085 69.1592 216.922 68.4289 218.517 68.4289C219.929 68.4864 221.298 68.9258 222.481 69.7002C222.797 69.8956 223.162 69.9987 223.535 69.9978C224.424 70.033 225.221 69.4549 225.465 68.5986C225.709 67.7423 225.335 66.8301 224.562 66.391C222.769 65.2643 220.688 64.6818 218.571 64.7139C214.661 64.7139 211.959 66.9862 211.959 70.4216V70.4757C211.959 74.2267 214.409 75.2817 218.22 76.2555C221.382 77.067 222.021 77.608 222.021 78.663V78.7171C222.021 79.8532 221.021 80.5205 219.319 80.5205C217.564 80.5038 215.863 79.9079 214.481 78.8253C214.135 78.5753 213.718 78.4426 213.292 78.4466C212.781 78.4393 212.288 78.6375 211.924 78.9968C211.56 79.3561 211.355 79.8464 211.355 80.3581ZM188.861 74.4611V74.5152C189.103 79.902 193.544 84.1404 198.931 84.1259C204.318 84.1114 208.737 79.8491 208.95 74.4611V74.407C208.708 69.0203 204.266 64.7818 198.879 64.7963C193.492 64.8108 189.074 69.0731 188.861 74.4611ZM204.599 74.4611V74.5152C204.665 76.0603 204.097 77.5654 203.027 78.6809C201.957 79.7963 200.477 80.4252 198.932 80.4213C197.377 80.4174 195.89 79.7817 194.811 78.6598C193.733 77.5379 193.156 76.026 193.212 74.4701V74.416C193.148 72.8733 193.717 71.3715 194.787 70.2594C195.857 69.1473 197.335 68.5218 198.878 68.528C200.429 68.5346 201.912 69.1686 202.99 70.2859C204.067 71.4033 204.647 72.9091 204.599 74.4611ZM139.34 66.923C139.34 65.7727 140.272 64.8401 141.421 64.8401C142.571 64.8401 143.502 65.7727 143.502 66.923V81.9992C143.502 83.1496 142.571 84.0821 141.421 84.0821C140.272 84.0821 139.34 83.1496 139.34 81.9992V66.923ZM148.223 66.9771C148.225 66.4279 148.446 65.9023 148.837 65.5165C149.227 65.1307 149.755 64.9165 150.304 64.9213H150.781C151.562 64.9085 152.288 65.3235 152.673 66.0033L157.691 74.1906L162.745 65.9763C163.109 65.3051 163.82 64.8969 164.582 64.9213H165.042C165.595 64.9164 166.127 65.1343 166.519 65.526C166.91 65.9177 167.128 66.4503 167.123 67.0042V81.9992C167.123 83.1396 166.199 84.0641 165.06 84.0641C163.921 84.0641 162.997 83.1396 162.997 81.9992V72.5676L159.348 78.1941C159.015 78.8422 158.347 79.2495 157.619 79.2495C156.89 79.2495 156.223 78.8422 155.889 78.1941L152.286 72.6487V82.0533C152.286 82.5961 152.068 83.1163 151.682 83.4975C151.296 83.8788 150.774 84.0893 150.232 84.0821C149.696 84.0821 149.182 83.8678 148.805 83.4868C148.428 83.1058 148.218 82.5897 148.223 82.0533V66.9771ZM171.663 67.0853C171.658 66.5314 171.876 65.9988 172.267 65.6072C172.659 65.2155 173.191 64.9976 173.744 65.0024H179.384C183.888 65.0024 186.59 67.7075 186.59 71.5487V71.6028C186.59 75.976 183.185 78.2482 178.951 78.2482H175.789V81.9992C175.84 82.7744 175.456 83.5136 174.792 83.9167C174.129 84.3199 173.296 84.3199 172.633 83.9167C171.969 83.5136 171.585 82.7744 171.636 81.9992L171.663 67.0853ZM179.113 74.5423C181.194 74.5423 182.401 73.298 182.401 71.6839V71.6298C182.401 69.7633 181.113 68.7625 179.032 68.7625H175.816V74.5423H179.113ZM233.786 68.8436H229.796C228.736 68.8436 227.877 67.9837 227.877 66.923C227.877 65.8623 228.736 65.0024 229.796 65.0024H241.939C242.999 65.0024 243.858 65.8623 243.858 66.923C243.858 67.9837 242.999 68.8436 241.939 68.8436H237.948V81.9992C237.948 83.1496 237.017 84.0821 235.867 84.0821C234.718 84.0821 233.786 83.1496 233.786 81.9992V68.8436ZM245.236 74.5152V74.4611C245.449 69.0731 249.868 64.8108 255.255 64.7963C260.642 64.7818 265.083 69.0203 265.325 74.407V74.4611C265.112 79.8491 260.694 84.1114 255.307 84.1259C249.92 84.1404 245.478 79.902 245.236 74.5152ZM260.974 74.5152V74.4611C261.025 72.913 260.45 71.41 259.378 70.2929C258.306 69.1758 256.828 68.5394 255.281 68.528C253.738 68.5218 252.26 69.1473 251.19 70.2594C250.12 71.3715 249.551 72.8733 249.614 74.416V74.4701C249.558 76.026 250.136 77.5379 251.214 78.6598C252.292 79.7817 253.78 80.4174 255.335 80.4213C256.876 80.4203 258.35 79.7891 259.415 78.6739C260.48 77.5587 261.043 76.0563 260.974 74.5152Z" fill="#5C36CC"/>
<path id="Combined Shape_2" fill-rule="evenodd" clip-rule="evenodd" d="M188.861 22.5422H139.34V28.2229H188.861V22.5422ZM179.077 33.633H139.34V39.3136H179.077V33.633Z" fill="#CFCFE8"/>
<path id="Combined Shape_3" fill-rule="evenodd" clip-rule="evenodd" d="M166.366 281.046H215.886V286.727H166.366V281.046ZM166.366 292.137H206.103V297.818H166.366V292.137ZM366.87 292.137H336.142V297.818H366.87V292.137Z" fill="#CFCFE8"/>
<path id="Combined Shape_4" fill-rule="evenodd" clip-rule="evenodd" d="M150.115 139.446H263.289L261.794 133.756H148.619L150.115 139.446ZM153.042 150.536H254.263L252.767 144.856H151.547L153.042 150.536ZM269.469 162.89H156.294L154.799 157.2H267.974L269.469 162.89ZM258.947 168.3H157.727L159.222 173.98H260.443L258.947 168.3ZM161.051 180.923H262.272L263.767 186.604H162.546L161.051 180.923ZM308.053 139.446H331.142L329.647 133.756H306.558L308.053 139.446ZM331.124 150.536H310.981L309.486 144.856H329.629L331.124 150.536ZM314.233 162.89H337.322L335.827 157.2H312.738L314.233 162.89ZM315.665 168.3H335.809L337.304 173.98H317.161L315.665 168.3ZM339.133 180.923H318.99L320.485 186.604H340.628L339.133 180.923Z" fill="#E6E7F4"/>
<path id="Oval" fill-rule="evenodd" clip-rule="evenodd" d="M327.8 45.7064C335.955 45.7064 342.565 39.0898 342.565 30.9278C342.565 22.7658 335.955 16.1492 327.8 16.1492C319.645 16.1492 313.035 22.7658 313.035 30.9278C313.035 39.0898 319.645 45.7064 327.8 45.7064Z" stroke="#00D9A6" stroke-width="3.61"/>
<path id="Path_4" d="M326.079 35.7157C325.688 35.7173 325.311 35.5689 325.025 35.3009L321.89 32.3975C321.325 31.8002 321.32 30.8657 321.879 30.2626C322.439 29.6595 323.371 29.5955 324.007 30.1162L326.043 32.0188L331.557 26.6087C331.951 26.2189 332.523 26.0692 333.057 26.2161C333.592 26.3629 334.007 26.784 334.147 27.3206C334.288 27.8573 334.131 28.428 333.737 28.8178L327.169 35.2919C326.875 35.5702 326.484 35.7224 326.079 35.7157Z" fill="#00D9A6"/>
<path id="Path_5" d="M143.845 268.342C157.987 269.483 171.88 264.119 181.592 253.766C191.304 243.413 195.78 229.198 193.752 215.142C193.68 214.628 193.581 214.123 193.491 213.609H143.845V268.342Z" fill="#E6E7F4"/>
<path id="Oval_2" d="M147.574 255.745C173.346 255.745 194.239 234.833 194.239 209.038C194.239 183.242 173.346 162.33 147.574 162.33C121.802 162.33 100.91 183.242 100.91 209.038C100.91 234.833 121.802 255.745 147.574 255.745Z" fill="#AF95FC"/>
<path id="Shape" fill-rule="evenodd" clip-rule="evenodd" d="M144.106 180.689C145.004 180.552 145.919 180.782 146.647 181.325C147.375 181.869 147.855 182.682 147.98 183.583L148.106 184.485C151.488 184.464 154.846 185.06 158.015 186.243C159.583 186.803 160.704 188.197 160.916 189.85C161.093 191.019 160.789 192.211 160.075 193.153C159.361 194.096 158.296 194.709 157.123 194.854C156.327 194.965 155.516 194.875 154.763 194.593C152.919 193.894 150.999 193.416 149.043 193.168L150.475 203.087C160.745 204.331 165.564 207.757 166.609 215.043C167.654 222.328 162.754 227.838 154.682 229.939L155.177 233.392C155.351 234.602 154.867 235.812 153.907 236.568C152.948 237.323 151.658 237.509 150.525 237.055C149.391 236.601 148.586 235.576 148.412 234.366L147.908 230.849C143.263 230.915 138.657 229.993 134.395 228.144C132.483 227.39 131.324 225.437 131.576 223.396C131.829 221.355 133.429 219.744 135.467 219.479C136.395 219.376 137.333 219.541 138.169 219.957C140.941 221.314 143.941 222.142 147.016 222.401L145.52 212.049C135.791 210.868 130.656 207.956 129.53 200.201C128.494 193.042 133.269 187.433 141.34 185.395L141.232 184.62C141.077 183.715 141.295 182.786 141.837 182.045C142.379 181.304 143.197 180.815 144.106 180.689ZM144.106 202.23L142.836 193.438C139.782 194.34 138.638 196.144 138.935 198.19C139.232 200.237 140.331 201.445 144.097 202.23H144.106ZM151.863 212.736L151.862 212.735H151.853C151.856 212.735 151.859 212.736 151.863 212.736ZM151.863 212.736L153.178 221.751C156.168 220.85 157.52 219.2 157.177 216.855C156.862 214.738 155.549 213.467 151.863 212.736Z" fill="white"/>
</g>
</g>
</svg>
