<svg width="549" height="282" viewBox="0 0 549 282" fill="none" xmlns="http://www.w3.org/2000/svg">
<g id="03">
<g id="Group 5">
<path id="Path" d="M331.733 123.51H23.2965C14.9735 123.51 7.28266 119.076 3.12114 111.879C-1.04038 104.682 -1.04038 95.8138 3.12114 88.6164C7.28266 81.4189 14.9735 76.9851 23.2965 76.9851H61.208C68.5297 74.6018 72.2477 68.9618 72.2477 62.3913C72.2477 53.6085 65.6391 46.5253 52.7452 46.5253H51.6326C38.7663 46.5253 28.3361 36.1102 28.3361 23.2626C28.3361 10.415 38.7663 1.91444e-07 51.6326 0H276.106C284.429 -1.23843e-07 292.12 4.43383 296.282 11.6313C300.443 18.8288 300.443 27.6965 296.282 34.8939C292.12 42.0914 284.429 46.5253 276.106 46.5253H255.967C243.158 46.5253 236.521 53.618 236.521 62.4008C236.521 68.9713 240.258 74.6113 247.551 77.004H331.733C340.056 77.004 347.746 81.4379 351.908 88.6354C356.069 95.8328 356.069 104.701 351.908 111.898C347.746 119.095 340.056 123.529 331.733 123.529V123.51Z" fill="#E6E7F4"/>
<path id="Path_2" d="M298.983 232.265H491.194C497.766 232.416 503.904 229.001 507.235 223.341C510.565 217.681 510.565 210.664 507.235 205.005C503.904 199.345 497.766 195.93 491.194 196.08H488.446C478.442 196.08 473.279 190.554 473.279 183.737C473.279 178.619 476.179 174.242 481.837 172.343H529.809C536.381 172.493 542.52 169.078 545.85 163.418C549.18 157.759 549.18 150.742 545.85 145.082C542.52 139.422 536.381 136.007 529.809 136.158H195.709C185.863 136.383 178 144.417 178 154.25C178 164.084 185.863 172.118 195.709 172.343H341.763C347.421 174.242 350.321 178.61 350.321 183.737C350.321 190.545 345.158 196.08 335.164 196.08H298.983C292.411 195.93 286.273 199.345 282.942 205.005C279.612 210.664 279.612 217.681 282.942 223.341C286.273 229.001 292.411 232.416 298.983 232.265Z" fill="#E6E7F4"/>
</g>
<path id="Path_3" d="M526.662 275.012C526.662 278.544 414.326 281.421 275.802 281.421C137.278 281.421 24.913 278.572 24.913 275.012C24.913 271.451 137.221 268.603 275.802 268.603C414.383 268.603 526.662 271.47 526.662 275.012Z" fill="#E6E7F4"/>
<path id="Path_4" fill-rule="evenodd" clip-rule="evenodd" d="M442.215 24.6204H99.5758C95.5664 24.6308 92.3173 27.8709 92.3016 31.8745V258.054H449.489V31.8745C449.473 27.8709 446.224 24.6308 442.215 24.6204Z" fill="#5C36CC"/>
<rect id="Rectangle" x="102.59" y="42.9077" width="336.62" height="204.512" fill="white"/>
<path id="Path_5" fill-rule="evenodd" clip-rule="evenodd" d="M48.6564 257.978C48.6877 267.372 56.3068 274.98 65.7151 275.012H476.076C485.484 274.98 493.103 267.372 493.134 257.978H48.6564Z" fill="#5C36CC"/>
<path id="Path_6" fill-rule="evenodd" clip-rule="evenodd" d="M217.627 257.978C217.632 259.675 219.009 261.049 220.708 261.054H321.083C322.782 261.049 324.158 259.675 324.163 257.978H217.627Z" fill="#AF95FC"/>
<rect id="Rectangle_2" x="170.388" y="42.9077" width="268.813" height="204.512" fill="#EDEEF7"/>
<rect id="Rectangle_3" x="102.59" y="42.9077" width="67.8071" height="204.512" fill="white"/>
<path id="Combined Shape" fill-rule="evenodd" clip-rule="evenodd" d="M190.979 87.7144C187.93 87.7144 185.459 90.1855 185.459 93.2339V135.376C185.459 138.424 187.93 140.896 190.979 140.896H233.198C236.247 140.896 238.718 138.424 238.718 135.376V93.2339C238.718 90.1855 236.247 87.7144 233.198 87.7144H190.979ZM252.786 87.7144C249.737 87.7144 247.266 90.1855 247.266 93.2339V135.376C247.266 138.424 249.737 140.896 252.786 140.896H295.005C298.054 140.896 300.525 138.424 300.525 135.376V93.2339C300.525 90.1855 298.054 87.7144 295.005 87.7144H252.786ZM309.073 93.2339C309.073 90.1855 311.544 87.7144 314.593 87.7144H356.812C359.861 87.7144 362.332 90.1855 362.332 93.2339V135.376C362.332 138.424 359.861 140.896 356.812 140.896H314.593C311.544 140.896 309.073 138.424 309.073 135.376V93.2339ZM376.39 87.7144C373.342 87.7144 370.871 90.1855 370.871 93.2339V135.376C370.871 138.424 373.342 140.896 376.39 140.896H418.61C421.658 140.896 424.129 138.424 424.129 135.376V93.2339C424.129 90.1855 421.658 87.7144 418.61 87.7144H376.39ZM185.459 154.942C185.459 151.893 187.93 149.422 190.979 149.422H233.198C236.247 149.422 238.718 151.893 238.718 154.942V197.084C238.718 200.132 236.247 202.603 233.198 202.603H190.979C187.93 202.603 185.459 200.132 185.459 197.084V154.942ZM252.786 149.422C249.737 149.422 247.266 151.893 247.266 154.942V197.084C247.266 200.132 249.737 202.603 252.786 202.603H295.005C298.054 202.603 300.525 200.132 300.525 197.084V154.942C300.525 151.893 298.054 149.422 295.005 149.422H252.786ZM309.073 154.942C309.073 151.893 311.544 149.422 314.593 149.422H356.812C359.861 149.422 362.332 151.893 362.332 154.942V197.084C362.332 200.132 359.861 202.603 356.812 202.603H314.593C311.544 202.603 309.073 200.132 309.073 197.084V154.942ZM376.39 149.422C373.342 149.422 370.871 151.893 370.871 154.942V197.084C370.871 200.132 373.342 202.603 376.39 202.603H418.61C421.658 202.603 424.129 200.132 424.129 197.084V154.942C424.129 151.893 421.658 149.422 418.61 149.422H376.39Z" fill="white"/>
<rect id="Rectangle_4" x="370.871" y="218.241" width="53.2586" height="13.5303" rx="2.4985" fill="#00D9A6"/>
<path id="Combined Shape_2" fill-rule="evenodd" clip-rule="evenodd" d="M224.388 127.65H199.808V132.36H224.388V127.65ZM286.186 127.65H261.605V132.36H286.186V127.65ZM323.412 127.65H347.993V132.36H323.412V127.65ZM409.79 127.65H385.21V132.36H409.79V127.65ZM199.808 189.367H224.388V194.077H199.808V189.367ZM286.186 189.367H261.605V194.077H286.186V189.367ZM323.412 189.367H347.993V194.077H323.412V189.367ZM409.79 189.367H385.21V194.077H409.79V189.367Z" fill="#E6E7F4"/>
<path id="Combined Shape_3" fill-rule="evenodd" clip-rule="evenodd" d="M218.616 107.027C218.616 110.624 215.696 113.54 212.093 113.54C208.491 113.54 205.57 110.624 205.57 107.027C205.57 103.43 208.491 100.513 212.093 100.513C215.696 100.513 218.616 103.43 218.616 107.027ZM280.414 107.027C280.414 110.624 277.493 113.54 273.891 113.54C270.288 113.54 267.368 110.624 267.368 107.027C267.368 103.43 270.288 100.513 273.891 100.513C277.493 100.513 280.414 103.43 280.414 107.027ZM335.698 113.54C339.3 113.54 342.221 110.624 342.221 107.027C342.221 103.43 339.3 100.513 335.698 100.513C332.095 100.513 329.175 103.43 329.175 107.027C329.175 110.624 332.095 113.54 335.698 113.54ZM404.028 107.027C404.028 110.624 401.107 113.54 397.505 113.54C393.902 113.54 390.982 110.624 390.982 107.027C390.982 103.43 393.902 100.513 397.505 100.513C401.107 100.513 404.028 103.43 404.028 107.027ZM212.093 175.258C215.696 175.258 218.616 172.341 218.616 168.744C218.616 165.147 215.696 162.231 212.093 162.231C208.491 162.231 205.57 165.147 205.57 168.744C205.57 172.341 208.491 175.258 212.093 175.258ZM280.414 168.744C280.414 172.341 277.493 175.258 273.891 175.258C270.288 175.258 267.368 172.341 267.368 168.744C267.368 165.147 270.288 162.231 273.891 162.231C277.493 162.231 280.414 165.147 280.414 168.744ZM335.698 175.258C339.3 175.258 342.221 172.341 342.221 168.744C342.221 165.147 339.3 162.231 335.698 162.231C332.095 162.231 329.175 165.147 329.175 168.744C329.175 172.341 332.095 175.258 335.698 175.258ZM404.028 168.744C404.028 172.341 401.107 175.258 397.505 175.258C393.902 175.258 390.982 172.341 390.982 168.744C390.982 165.147 393.902 162.231 397.505 162.231C401.107 162.231 404.028 165.147 404.028 168.744Z" fill="#AF95FC"/>
<path id="Combined Shape_4" fill-rule="evenodd" clip-rule="evenodd" d="M147.671 126.786H119.677V131.496H147.671V126.786ZM144.258 137.468H119.677V142.177H144.258V137.468ZM119.677 148.14H148.527V152.85H119.677V148.14ZM152.796 158.822H119.677V163.532H152.796V158.822Z" fill="#E6E7F4"/>
<rect id="Rectangle_5" x="185.459" y="70.2056" width="24.5802" height="4.7095" fill="#CFCFE8"/>
<path id="Oval" d="M98.0069 228.24C121.928 228.24 141.319 208.876 141.319 184.99C141.319 161.104 121.928 141.741 98.0069 141.741C74.0861 141.741 54.6945 161.104 54.6945 184.99C54.6945 208.876 74.0861 228.24 98.0069 228.24Z" fill="#AF95FC"/>
<path id="Path_7" d="M92.9577 199.005C91.8104 199.006 90.7055 198.572 89.8674 197.789L80.6819 189.244C79.3882 188.165 78.7974 186.46 79.1461 184.813C79.4948 183.166 80.7261 181.846 82.3465 181.382C83.967 180.918 85.7117 181.386 86.8816 182.597L92.8721 188.152L109.037 172.257C110.83 170.496 113.715 170.519 115.479 172.31C117.244 174.101 117.22 176.981 115.427 178.743L96.1527 197.675C95.3067 198.525 94.1572 199.003 92.9577 199.005Z" fill="white"/>
<path id="Oval_2" fill-rule="evenodd" clip-rule="evenodd" d="M136.489 97.4467C146.981 97.4467 155.487 88.9531 155.487 78.4758C155.487 67.9984 146.981 59.5049 136.489 59.5049C125.996 59.5049 117.49 67.9984 117.49 78.4758C117.49 88.9531 125.996 97.4467 136.489 97.4467Z" stroke="#EDEEF4" stroke-width="4.2655"/>
<path id="Shape" fill-rule="evenodd" clip-rule="evenodd" d="M129.643 75.3329C129.601 74.502 129.903 73.6905 130.479 73.0888C131.054 72.4872 131.852 72.1485 132.685 72.1521C133.509 72.1511 134.298 72.488 134.866 73.0839C135.434 73.6799 135.732 74.4827 135.69 75.3045C135.732 76.1354 135.43 76.9469 134.854 77.5486C134.279 78.1502 133.481 78.4889 132.647 78.4853C131.822 78.4891 131.033 78.153 130.464 77.5564C129.895 76.9598 129.598 76.1554 129.643 75.3329ZM133.817 75.3329C133.817 74.4974 133.36 73.7758 132.647 73.7758C131.934 73.7758 131.506 74.4784 131.506 75.3045C131.506 76.14 131.972 76.8711 132.685 76.8711C133.399 76.8711 133.817 76.1305 133.817 75.3329ZM139.76 72.5319L131.83 83.3941C131.707 83.5597 131.638 83.7582 131.63 83.9638C131.627 84.1862 131.715 84.4003 131.872 84.5575C132.03 84.7148 132.244 84.802 132.467 84.7994C132.754 84.7929 133.023 84.6568 133.199 84.4291L141.129 73.5574C141.256 73.3942 141.326 73.1942 141.329 72.9877C141.324 72.5284 140.952 72.1573 140.492 72.1521C140.201 72.1519 139.927 72.2937 139.76 72.5319ZM137.288 81.6566C137.246 80.8256 137.548 80.0141 138.124 79.4125C138.699 78.8108 139.497 78.4721 140.33 78.4758C141.161 78.4715 141.955 78.8114 142.525 79.4143C143.094 80.0173 143.388 80.8293 143.335 81.6566C143.374 82.4868 143.071 83.2967 142.496 83.8977C141.921 84.4987 141.125 84.8383 140.292 84.8374C139.462 84.8417 138.668 84.5018 138.098 83.8988C137.528 83.2958 137.235 82.4838 137.288 81.6566ZM140.292 80.0899C141.006 80.0899 141.471 80.821 141.471 81.6566C141.471 82.4921 141.044 83.1853 140.33 83.1853C139.617 83.1853 139.151 82.4541 139.151 81.6186C139.151 80.802 139.579 80.0899 140.292 80.0899Z" fill="#AF95FC"/>
</g>
</svg>
