<svg width="156" height="51" viewBox="0 0 156 51" fill="none" xmlns="http://www.w3.org/2000/svg">
<path d="M10.1411 50.6813C9.73917 50.6813 9.34692 50.6761 8.94812 50.6672C8.12197 50.6564 7.29775 50.5846 6.48222 50.4524C5.72178 50.3217 4.98512 50.0786 4.29654 49.731C3.61427 49.3863 2.99198 48.9344 2.45352 48.3925C1.90726 47.857 1.45248 47.2359 1.10719 46.5538C0.758098 45.8672 0.516505 45.1314 0.390828 44.3718C0.255107 43.5556 0.181677 42.7303 0.17117 41.903C0.162805 41.6253 0.151855 40.7008 0.151855 40.7008V10.285C0.151855 10.285 0.163518 9.37469 0.171236 9.10723C0.181296 8.28127 0.2543 7.45726 0.389614 6.64234C0.515523 5.88068 0.757303 5.14268 1.10658 4.45391C1.4506 3.77229 1.90286 3.15071 2.44583 2.61328C2.98818 2.07073 3.61246 1.61646 4.29589 1.26703C4.98289 0.920588 5.71816 0.679163 6.47707 0.550837C7.29527 0.417283 8.12235 0.345077 8.95137 0.334825L10.1418 0.318748H145.721L146.926 0.33547C147.747 0.345212 148.567 0.416774 149.378 0.549547C150.144 0.679482 150.887 0.922592 151.582 1.27088C152.951 1.9751 154.065 3.08923 154.768 4.45712C155.112 5.14114 155.35 5.87312 155.474 6.6282C155.611 7.4498 155.688 8.28029 155.703 9.11303C155.707 9.48591 155.707 9.88644 155.707 10.285C155.718 10.7788 155.718 11.2488 155.718 11.7226V39.2787C155.718 39.757 155.718 40.2238 155.707 40.6943C155.707 41.1225 155.707 41.5147 155.702 41.9184C155.687 42.7363 155.611 43.552 155.476 44.3589C155.353 45.1239 155.113 45.8656 154.764 46.5577C154.416 47.2324 153.964 47.8481 153.424 48.3822C152.885 48.927 152.262 49.3816 151.578 49.7285C150.885 50.0787 150.143 50.3228 149.378 50.4524C148.562 50.5853 147.738 50.6571 146.912 50.6672C146.525 50.6761 146.12 50.6813 145.728 50.6813L144.298 50.6839L10.1411 50.6813Z" fill="black"/>
</svg>
