<svg width="469" height="315" viewBox="0 0 469 315" fill="none" xmlns="http://www.w3.org/2000/svg">
<g id="Group 9">
<path id="Path" d="M393.097 160.848C393.097 153.555 399.017 147.642 406.319 147.642H449.381C459.82 147.642 468.282 139.191 468.282 128.765C468.26 118.348 459.811 109.91 449.381 109.887H339.919C333.955 109.887 329.121 105.059 329.121 99.1026C329.121 93.1463 333.955 88.3178 339.919 88.3178H360.053C364.691 88.3113 369.135 86.4616 372.405 83.177C375.676 79.8924 377.503 75.443 377.483 70.811C377.485 66.1868 375.647 61.7514 372.373 58.4816C369.099 55.2119 364.658 53.3759 360.028 53.3781H256.483C250.067 53.3735 244.86 58.5595 244.846 64.9672C244.855 68.0552 243.633 71.0197 241.45 73.2064C239.267 75.393 236.302 76.622 233.21 76.622H143.635C139.228 76.6198 135.001 78.3662 131.883 81.4769C128.765 84.5877 127.012 88.808 127.01 93.2095C127.012 97.6124 125.263 101.836 122.146 104.95C119.03 108.064 114.802 109.813 110.394 109.813H37.8791C32.8662 109.813 28.0586 111.802 24.514 115.343C20.9693 118.883 18.9779 123.684 18.9779 128.691C18.9779 139.117 27.4403 147.568 37.8791 147.568H53.2711C60.5738 147.568 66.4937 153.481 66.4937 160.774C66.4937 168.068 60.5738 173.98 53.2711 173.98H39.0049C28.7258 173.978 18.8678 178.059 11.604 185.323C4.34021 192.587 0.266996 202.438 0.282269 212.704C0.280089 222.962 4.35908 232.8 11.6215 240.053C18.8838 247.306 28.7344 251.38 39.0049 251.378H427.053C437.324 251.38 447.174 247.306 454.437 240.053C461.699 232.8 465.778 222.962 465.776 212.704C465.776 202.448 461.696 192.611 454.434 185.36C447.172 178.108 437.322 174.036 427.053 174.038H406.303C399.013 174.029 393.106 168.129 393.097 160.848Z" fill="#E6E7F4"/>
<path id="Shape" fill-rule="evenodd" clip-rule="evenodd" d="M209.928 0.332927C212.334 0.111838 214.725 0.00086375 217.103 5.02255e-06C257.054 0.0331562 290.41 30.4553 294.077 70.2049L297.896 111.556C299.782 131.971 293.473 152.299 280.358 168.066C267.244 183.834 248.397 193.75 227.964 195.633C225.549 195.855 223.148 195.966 220.762 195.966C180.822 195.914 147.485 165.498 143.816 125.761L139.997 84.4012C136.079 41.8937 167.385 4.25874 209.928 0.332927ZM217.103 5.02255e-06C217.112 1.67418e-06 217.121 0 217.131 0H217.096C217.098 1.58851e-06 217.101 3.26278e-06 217.103 5.02255e-06ZM268.522 72.561C266.063 46.0034 243.794 25.6701 217.1 25.6098C217.11 25.6098 217.12 25.6098 217.131 25.6098H217.096C217.098 25.6098 217.099 25.6098 217.1 25.6098C215.504 25.6107 213.882 25.6875 212.286 25.8317C183.838 28.4688 162.9 53.625 165.491 82.0537L169.302 123.405C171.761 149.964 194.032 170.298 220.727 170.356C222.334 170.356 223.966 170.279 225.572 170.134C254.008 167.479 274.928 142.33 272.341 113.912L268.522 72.561Z" fill="#AF95FC"/>
<path id="Rectangle" d="M118.312 137.765C117.209 125.816 126.003 115.235 137.952 114.134L301.465 99.0647C313.412 97.9637 323.99 106.755 325.092 118.701L337.16 249.423C338.263 261.372 329.47 271.952 317.52 273.054L154.008 288.123C142.061 289.224 131.483 280.433 130.38 268.486L118.312 137.765Z" fill="#5C36CC"/>
<path id="Path_2" d="M249.879 174.027C248.879 163.151 240.606 154.347 229.806 152.665C219.006 150.983 208.443 156.853 204.178 166.909C199.912 176.964 203.036 188.63 211.756 195.215L208.869 236.788L254.151 232.613L243.727 192.27C248.26 187.327 250.494 180.702 249.879 174.027Z" fill="#4F2CB6"/>
<path id="Path_3" d="M156.896 177.962L122.191 171.679C121.944 171.649 121.695 171.649 121.448 171.679L129.214 255.807C129.43 255.791 129.643 255.745 129.846 255.671C141.341 251.118 150.931 242.774 157.024 232.024C166.978 214.388 159.425 181.479 159.101 180.088C158.859 179.002 157.991 178.165 156.896 177.962Z" fill="#5E32D0"/>
<path id="Path_4" d="M157.896 167.018C157.642 165.95 156.781 165.133 155.7 164.935L120.986 158.652C120.491 158.562 119.981 158.606 119.508 158.78L86.5374 171.304C85.5095 171.699 84.8123 172.663 84.7603 173.762C84.692 175.188 83.2908 208.924 96.3116 224.435C104.271 233.887 115.222 240.341 127.351 242.729C127.57 242.755 127.791 242.755 128.009 242.729C128.227 242.708 128.442 242.663 128.65 242.593C140.137 238.027 149.721 229.682 155.82 218.938C165.773 201.318 158.22 168.41 157.896 167.018Z" fill="#00D9A6"/>
<path id="Path_5" d="M144.943 187.805L123.994 212.996C123.014 214.165 121.275 214.325 120.098 213.355L104.514 200.439C103.344 199.46 103.184 197.722 104.155 196.546L106.718 193.456C107.186 192.893 107.859 192.539 108.588 192.472C109.317 192.405 110.043 192.63 110.606 193.098L120.978 201.711L137.596 181.735C138.061 181.169 138.734 180.812 139.464 180.744C140.195 180.677 140.922 180.905 141.483 181.377L144.576 183.938C145.745 184.905 145.91 186.635 144.943 187.805Z" fill="white"/>
<path id="Path_6" d="M339.325 308.171C339.325 311.671 258.081 314.513 203.477 314.513C148.874 314.513 129.257 311.671 129.257 308.171C129.257 304.671 148.865 301.828 203.477 301.828C258.09 301.828 339.325 304.662 339.325 308.171Z" fill="#E6E7F4"/>
</g>
</svg>
