<svg width="96" height="96" viewBox="0 0 96 96" fill="none" xmlns="http://www.w3.org/2000/svg">
<rect opacity="0.01" width="96" height="96" rx="3" fill="#FF7BAC"/>
<rect x="23.25" y="24.9199" width="53.2" height="49.65" rx="1.06" fill="#E6E7F4"/>
<path fill-rule="evenodd" clip-rule="evenodd" d="M75.6 19H18.58C17.7074 19 17 19.7074 17 20.58V74.65C17 75.5226 17.7074 76.23 18.58 76.23H75.6C76.4726 76.23 77.18 75.5226 77.18 74.65V20.58C77.18 19.7074 76.4726 19 75.6 19ZM19.5 73.73V21.5H74.68V73.73H19.5Z" fill="#344E68"/>
<path d="M57.6299 60.0901H39.1299" stroke="#344E68" stroke-width="2.5" stroke-linecap="round" stroke-linejoin="round"/>
<path d="M62.1898 65.3H34.5698" stroke="#344E68" stroke-width="2.5" stroke-linecap="round" stroke-linejoin="round"/>
<path d="M47.5498 42.1101H49.1998C52.7786 42.1101 55.6798 45.0113 55.6798 48.5901V49.6901C55.6852 50.2435 55.4697 50.7762 55.0812 51.1703C54.6928 51.5644 54.1632 51.7875 53.6098 51.7901H43.1498C42.0011 51.7901 41.0698 50.8589 41.0698 49.7101V48.6001C41.0698 46.8815 41.7525 45.2333 42.9678 44.0181C44.183 42.8028 45.8312 42.1201 47.5498 42.1201V42.1101Z" fill="#5C36CC"/>
<path d="M48.3799 41.4901C50.694 41.4901 52.5699 39.6142 52.5699 37.3001C52.5699 34.986 50.694 33.1101 48.3799 33.1101C46.0659 33.1101 44.1899 34.986 44.1899 37.3001C44.1899 39.6142 46.0659 41.4901 48.3799 41.4901Z" fill="#5C36CC"/>
<path fill-rule="evenodd" clip-rule="evenodd" d="M61.53 40.18C61.53 47.4426 55.6425 53.33 48.38 53.33C41.1174 53.33 35.23 47.4426 35.23 40.18C35.23 32.9175 41.1174 27.03 48.38 27.03C55.6425 27.03 61.53 32.9175 61.53 40.18ZM37.73 40.18C37.73 46.0619 42.4981 50.83 48.38 50.83C54.2618 50.83 59.03 46.0619 59.03 40.18C59.03 34.2982 54.2618 29.53 48.38 29.53C42.4981 29.53 37.73 34.2982 37.73 40.18Z" fill="#344E68"/>
</svg>
