<svg width="96" height="96" viewBox="0 0 96 96" fill="none" xmlns="http://www.w3.org/2000/svg">
<rect width="96" height="96" fill="#F4F5FA"/>
<rect opacity="0.01" width="96" height="96" rx="3" fill="#FF7BAC"/>
<rect x="21.04" y="26.79" width="58.18" height="37.57" rx="0.84" fill="#E6E7F4"/>
<path fill-rule="evenodd" clip-rule="evenodd" d="M16.6101 65.76H78.8901C79.7627 65.76 80.4701 65.0526 80.4701 64.18V21.58C80.4701 21.161 80.3036 20.7591 80.0073 20.4628C79.711 20.1665 79.3091 20 78.8901 20H16.6101C16.1858 19.9999 15.7793 20.1705 15.4821 20.4733C15.1849 20.7762 15.022 21.1858 15.0301 21.61V64.18C15.0301 65.0526 15.7375 65.76 16.6101 65.76ZM77.9701 63.26H17.5301V22.53H77.9701V63.26Z" fill="#344E68"/>
<path d="M10.5801 64.7199H84.9201C85.1023 64.7199 85.2501 64.8677 85.2501 65.0499V70.0499C85.2501 72.1762 83.5264 73.8999 81.4001 73.8999H14.1001C13.0703 73.9 12.0834 73.4875 11.3599 72.7547C10.6364 72.0218 10.2367 71.0296 10.2501 69.9999V64.9999C10.2501 64.8177 10.3978 64.6699 10.5801 64.6699V64.7199Z" fill="#AF91FF"/>
<path fill-rule="evenodd" clip-rule="evenodd" d="M14.1 75.15H81.4C84.2144 75.1445 86.4945 72.8643 86.5 70.05V65.05C86.5 64.1757 85.7942 63.4655 84.92 63.46H10.58C9.70578 63.4655 8.99998 64.1757 9 65.05V70.05C9.0055 72.8643 11.2856 75.1445 14.1 75.15ZM11.5 70.08V66H84V70.08C83.9945 71.5136 82.8337 72.6745 81.4 72.68H14.1C12.6663 72.6745 11.5055 71.5136 11.5 70.08Z" fill="#344E68"/>
<path d="M30.1701 40.31C29.8393 40.308 29.5229 40.1749 29.2901 39.94L26.5701 37.23C26.0912 36.7372 26.0912 35.9528 26.5701 35.46C26.8046 35.2249 27.123 35.0928 27.4551 35.0928C27.7871 35.0928 28.1056 35.2249 28.3401 35.46L31.0601 38.17C31.5389 38.6628 31.5389 39.4472 31.0601 39.94C30.8224 40.1737 30.5034 40.3063 30.1701 40.31Z" fill="#5C36CC"/>
<path d="M30.1701 40.31C29.6672 40.3014 29.2176 39.9945 29.0264 39.5294C28.8351 39.0642 28.9387 38.5299 29.2901 38.17L34.0501 33.41C34.5458 32.9694 35.2993 32.9926 35.767 33.4629C36.2346 33.9332 36.2535 34.6868 35.8101 35.18L31.0601 39.94C30.8224 40.1737 30.5034 40.3063 30.1701 40.31Z" fill="#5C36CC"/>
<path d="M68.3201 35.56H40.9301C40.3198 35.4509 39.8755 34.92 39.8755 34.3C39.8755 33.6801 40.3198 33.1492 40.9301 33.04H68.3201C68.9304 33.1492 69.3747 33.6801 69.3747 34.3C69.3747 34.92 68.9304 35.4509 68.3201 35.56Z" fill="#344E68"/>
<path d="M52.8701 40.8701H40.9301C40.3198 40.7609 39.8755 40.2301 39.8755 39.6101C39.8755 38.9901 40.3198 38.4593 40.9301 38.3501H52.8701C53.4804 38.4593 53.9247 38.9901 53.9247 39.6101C53.9247 40.2301 53.4804 40.7609 52.8701 40.8701Z" fill="#344E68"/>
<path d="M68.3201 50.0801H40.9301C40.3198 49.9709 39.8755 49.44 39.8755 48.8201C39.8755 48.2001 40.3198 47.6692 40.9301 47.5601H68.3201C68.9304 47.6692 69.3747 48.2001 69.3747 48.8201C69.3747 49.44 68.9304 49.9709 68.3201 50.0801Z" fill="#344E68"/>
<path d="M52.8699 55.3899H40.9299C40.311 55.2939 39.8545 54.7611 39.8545 54.1349C39.8545 53.5086 40.311 52.9759 40.9299 52.8799H52.8699C53.4887 52.9759 53.9453 53.5086 53.9453 54.1349C53.9453 54.7611 53.4887 55.2939 52.8699 55.3899Z" fill="#344E68"/>
<path fill-rule="evenodd" clip-rule="evenodd" d="M27.54 56.3401H34.84C35.1724 56.3428 35.4919 56.2119 35.7269 55.9769C35.9619 55.7419 36.0927 55.4224 36.09 55.0901V47.7801C36.0927 47.4477 35.9619 47.1282 35.7269 46.8932C35.4919 46.6582 35.1724 46.5274 34.84 46.5301H27.54C26.8497 46.5301 26.29 47.0897 26.29 47.7801V55.0901C26.29 55.7804 26.8497 56.3401 27.54 56.3401ZM33.55 53.8401H28.75V49.0001H33.55V53.8401Z" fill="#344E68"/>
</svg>
