<?xml version="1.0" encoding="UTF-8"?>
<svg width="112px" height="46px" viewBox="0 0 112 46" version="1.1" xmlns="http://www.w3.org/2000/svg" xmlns:xlink="http://www.w3.org/1999/xlink">
    <!-- Generator: Sketch 54.1 (76490) - https://sketchapp.com -->
    <title>Combined Shape</title>
    <desc>Created with Sketch.</desc>
    <g id="Desktop-Blue-Purple" stroke="none" stroke-width="1" fill="none" fill-rule="evenodd">
        <g id="Log-in" transform="translate(-664.000000, -51.000000)" fill="#FFFFFF">
            <path d="M743.807456,80.803274 C743.807456,71.8625753 750.9377,64.9622603 759.820283,64.9622603 C768.702867,64.9622603 775.832793,71.8625753 775.832793,80.803274 C775.832793,80.8747945 775.828669,80.9456849 775.827717,81.0175205 L775.830255,81.0178356 L775.77949,95.3351781 C775.776635,96.1187534 774.912045,96.5973425 774.239411,96.1874384 L769.638844,93.3839589 C766.931807,95.4375753 763.530561,96.6442877 759.820283,96.6442877 C750.9377,96.6442877 743.807456,89.7439726 743.807456,80.803274 Z M761.521319,89.5821219 C761.670758,89.4939027 762.05086,89.2267247 762.175234,88.7440397 C762.194588,88.6693685 762.120979,88.6035192 762.048005,88.6309301 C761.877308,88.6958342 761.58541,88.7793274 761.249092,88.7619986 C760.712571,88.7345877 760.350871,88.4592178 759.913024,88.4592178 C759.475495,88.4592178 759.113478,88.7345877 758.577274,88.7619986 C758.240639,88.7793274 757.948741,88.6958342 757.777727,88.6309301 C757.705387,88.6035192 757.631461,88.6693685 757.650815,88.7440397 C757.775189,89.2267247 758.155608,89.4939027 758.30473,89.5821219 C758.336775,89.6013411 758.378339,89.5896836 758.396107,89.5572315 C758.436718,89.4841356 758.479551,89.4249027 758.5135,89.3826836 C758.542373,89.3464507 758.598531,89.3511767 758.622327,89.3908753 C758.761614,89.6208753 758.987517,89.8738753 759.095075,89.9891904 C759.123631,90.0203822 759.173444,90.0159712 759.197874,89.9813137 C759.256571,89.8978205 759.344141,89.8152726 759.400616,89.7661219 C759.429489,89.7409164 759.473591,89.7453274 759.496752,89.775574 C759.616367,89.9327932 759.774373,90.0821356 759.857183,90.1564918 C759.888911,90.185163 759.937138,90.185163 759.968866,90.1564918 C760.051676,90.0821356 760.209682,89.9327932 760.329296,89.775574 C760.352458,89.7453274 760.39656,89.7409164 760.425432,89.7661219 C760.481908,89.8152726 760.569478,89.8978205 760.628492,89.9813137 C760.652605,90.0159712 760.702418,90.0203822 760.731291,89.9891904 C760.838849,89.8738753 761.064752,89.6208753 761.203721,89.3908753 C761.227517,89.3511767 761.283676,89.3464507 761.312548,89.3826836 C761.346497,89.4249027 761.38933,89.4841356 761.429942,89.5572315 C761.448027,89.5896836 761.488956,89.6013411 761.521319,89.5821219 Z M766.639624,78.3765849 C767.632394,77.3904205 767.74027,75.8988863 766.880122,75.0447356 C766.019975,74.1905849 764.517969,74.2977082 763.524882,75.2835575 L763.519171,75.2892288 C763.183171,75.6235164 762.677108,75.7192973 762.238944,75.5362425 C761.442887,75.2035301 760.834661,75.0198452 759.912961,75.0198452 C758.991578,75.0198452 758.383352,75.2035301 757.587295,75.5362425 C757.148814,75.7192973 756.642434,75.6235164 756.307069,75.2892288 L756.30104,75.2835575 C755.30827,74.2977082 753.806264,74.1905849 752.946117,75.0447356 C752.085969,75.8988863 752.193527,77.3904205 753.186615,78.3765849 L753.192961,78.3832014 C753.643816,78.8271329 753.897324,79.4314342 753.897324,80.0618863 L753.897324,82.8278726 C753.897324,84.0651466 754.345958,85.2658726 755.179771,86.1852425 C755.629992,86.6814753 756.153822,87.1109137 756.734128,87.4552836 C756.760462,87.471037 756.784576,87.4899411 756.805199,87.512311 C756.931794,87.650311 757.488621,88.1994753 758.295782,88.1569411 C759.218434,88.1084205 759.738139,87.8204479 759.738139,87.1228863 C759.738139,86.3739685 758.191714,85.9079822 758.102559,85.2809959 C758.098117,85.2510644 758.12223,85.2245986 758.152372,85.2245986 L758.165063,85.2245986 C758.180927,85.2245986 758.195522,85.2327904 758.205358,85.2450781 C758.234547,85.281626 758.323703,85.3547219 758.575307,85.3547219 C759.429743,85.3547219 759.457981,85.4902014 759.912961,85.4902014 C760.367941,85.4902014 760.396179,85.3547219 761.250615,85.3547219 C761.502219,85.3547219 761.591692,85.281626 761.620882,85.2450781 C761.6304,85.2327904 761.645312,85.2245986 761.661176,85.2245986 L761.67355,85.2245986 C761.703692,85.2245986 761.728122,85.2510644 761.72368,85.2809959 C761.634525,85.9079822 760.0881,86.3739685 760.0881,87.1228863 C760.0881,87.8204479 760.607488,88.1084205 761.530139,88.1569411 C762.337301,88.1994753 762.894128,87.650311 763.020723,87.512311 C763.041346,87.4899411 763.065459,87.471037 763.091794,87.4552836 C763.6721,87.1109137 764.196247,86.6814753 764.646468,86.1852425 C765.479964,85.2661877 765.928916,84.0651466 765.928916,82.8278726 L765.928916,80.0609411 C765.928916,79.4308041 766.182423,78.8268178 766.632961,78.3832014 L766.639624,78.3765849 Z M674.867173,80.840137 C674.867173,71.8928219 681.519275,64.9871507 691.073541,64.9871507 C699.902187,64.9871507 706.311887,71.7727808 706.311887,80.840137 C706.311887,81.6202466 706.251921,82.3411233 706.191003,83.0616849 C706.070119,84.0229589 705.465382,84.4429452 704.558278,84.4429452 L697.180873,84.4429452 L685.272068,84.4429452 C684.812329,84.4429452 684.50996,84.9117671 684.692397,85.3308082 C685.960567,88.2477123 688.561314,89.4270137 691.43651,89.4270137 C693.129518,89.4270137 694.822527,88.8264932 695.911433,87.9260274 C696.515535,87.4452329 696.999705,87.1452877 697.785609,87.1452877 L703.590572,87.0851096 C704.679161,87.0851096 705.283898,87.8059863 704.800363,88.7663151 C702.442017,93.9910959 697.483558,96.6928082 691.315309,96.6928082 C681.27719,96.6928082 674.867173,89.787137 674.867173,80.840137 Z M684.665428,76.7039178 C684.475694,77.1226438 684.781235,77.597137 685.24383,77.597137 L696.400997,77.597137 C696.853756,77.597137 697.157711,77.1406027 696.987966,76.7240822 C695.865428,73.972274 693.439184,72.9735068 691.012941,72.9735068 C687.968317,72.9735068 685.763535,74.280411 684.665428,76.7039178 Z M709.021462,80.8061096 C709.021462,71.8591096 716.157099,64.9534384 725.046346,64.9534384 C733.935275,64.9534384 741.070595,71.8591096 741.070595,80.8061096 C741.070595,89.7534247 733.935275,96.6587808 725.046346,96.6587808 C716.157099,96.6587808 709.021462,89.7534247 709.021462,80.8061096 Z M717.409088,80.8061096 C717.409088,85.4880274 720.729745,88.5873562 725.046346,88.5873562 C729.362312,88.5873562 732.682652,85.4880274 732.682652,80.8061096 C732.682652,76.1245068 729.362312,73.024863 725.046346,73.024863 C720.729745,73.024863 717.409088,76.1245068 717.409088,80.8061096 Z M665.354788,51.3150685 L670.77362,51.3150685 C671.640113,51.3150685 672.128091,51.8550959 672.128091,52.8160548 L672.128091,95.1574795 C672.128091,96.1187534 671.640113,96.6587808 670.773303,96.6587808 L665.354788,96.6587808 C664.48766,96.6587808 664,96.1187534 664,95.1574795 L664,52.8160548 C664,51.8550959 664.48766,51.3150685 665.354788,51.3150685 Z" id="Combined-Shape"></path>
        </g>
    </g>
</svg>