<svg width="96" height="96" viewBox="0 0 96 96" fill="none" xmlns="http://www.w3.org/2000/svg">
<rect width="96" height="96" fill="#F4F5FA"/>
<rect opacity="0.01" width="96" height="96" rx="3" fill="#FF7BAC"/>
<path d="M68.78 76.94L37.24 76.74L37.3 22.74H66.61V27.62C66.61 29.12 67.82 29.62 69.32 29.62H75.21L75.28 76.05C75.24 77 69.7 76.94 68.78 76.94Z" fill="#E6E7F4"/>
<path d="M73.7801 23.4001C71.9801 20.6601 65.6101 18.0801 65.6101 18.0801L65.3701 23.7401L66.9601 28.1901L75.9601 29.4801C75.9601 29.4801 74.9101 25.1301 73.7801 23.4001Z" fill="#AF91FF"/>
<path fill-rule="evenodd" clip-rule="evenodd" d="M33.36 77.99H74.73C75.8594 77.9793 76.7738 77.0693 76.79 75.94V25.18C76.7911 24.8477 76.6619 24.5281 76.43 24.29L70.5 18.36C70.2619 18.1282 69.9424 17.9989 69.61 18H33.36C32.2152 18 31.2855 18.9252 31.28 20.07V75.94C31.2964 77.077 32.2229 77.9901 33.36 77.99ZM74.3 75.49H33.78V20.5H69.11L74.3 25.69V75.49Z" fill="#344E68"/>
<path d="M75.2401 29.6401H66.6101C65.9198 29.6401 65.3601 29.0805 65.3601 28.3901V19.1101H67.8601V27.1101H75.2701L75.2401 29.6401Z" fill="#344E68"/>
<path d="M42.9699 48.56H65.1199C65.7302 48.4509 66.1745 47.92 66.1745 47.3C66.1745 46.6801 65.7302 46.1492 65.1199 46.04H42.9699C42.3596 46.1492 41.9153 46.6801 41.9153 47.3C41.9153 47.92 42.3596 48.4509 42.9699 48.56Z" fill="#344E68"/>
<path d="M42.9699 53.8701H55.6799C56.2902 53.7609 56.7345 53.2301 56.7345 52.6101C56.7345 51.9901 56.2902 51.4593 55.6799 51.3501H42.9699C42.3596 51.4593 41.9153 51.9901 41.9153 52.6101C41.9153 53.2301 42.3596 53.7609 42.9699 53.8701Z" fill="#344E68"/>
<path d="M42.9699 34.1899H65.1199C65.7302 34.0808 66.1745 33.5499 66.1745 32.9299C66.1745 32.3099 65.7302 31.7791 65.1199 31.6699H42.9699C42.3596 31.7791 41.9153 32.3099 41.9153 32.9299C41.9153 33.5499 42.3596 34.0808 42.9699 34.1899Z" fill="#344E68"/>
<path d="M42.9699 39.5H55.6799C56.2902 39.3908 56.7345 38.86 56.7345 38.24C56.7345 37.62 56.2902 37.0891 55.6799 36.98H42.9699C42.3596 37.0891 41.9153 37.62 41.9153 38.24C41.9153 38.86 42.3596 39.3908 42.9699 39.5Z" fill="#344E68"/>
<path d="M65.1199 60.03H42.9699C42.3596 60.1392 41.9153 60.67 41.9153 61.29C41.9153 61.91 42.3596 62.4409 42.9699 62.55H65.1199C65.7302 62.4409 66.1745 61.91 66.1745 61.29C66.1745 60.67 65.7302 60.1392 65.1199 60.03V60.03Z" fill="#344E68"/>
<path d="M55.6799 65.3401H42.9699C42.3596 65.4493 41.9153 65.9801 41.9153 66.6001C41.9153 67.2201 42.3596 67.7509 42.9699 67.8601H55.6799C56.2902 67.7509 56.7345 67.2201 56.7345 66.6001C56.7345 65.9801 56.2902 65.4493 55.6799 65.3401V65.3401Z" fill="#344E68"/>
<path d="M32.75 48.55C39.1013 48.55 44.25 43.4013 44.25 37.05C44.25 30.6988 39.1013 25.55 32.75 25.55C26.3987 25.55 21.25 30.6988 21.25 37.05C21.25 43.4013 26.3987 48.55 32.75 48.55Z" fill="#F4F5FA"/>
<path fill-rule="evenodd" clip-rule="evenodd" d="M20 37.05C20 44.0917 25.7084 49.8 32.75 49.8C39.7893 49.7945 45.4945 44.0894 45.5 37.05C45.5 30.0084 39.7916 24.3 32.75 24.3C25.7084 24.3 20 30.0084 20 37.05ZM22.5 37.05C22.5 31.3891 27.0891 26.8 32.75 26.8C38.4086 26.8056 42.9945 31.3914 43 37.05C43 42.711 38.4109 47.3 32.75 47.3C27.0891 47.3 22.5 42.711 22.5 37.05Z" fill="#344E68"/>
<path d="M31.46 41.78C31.1284 41.7825 30.8103 41.6487 30.58 41.41L27.34 38.17C26.9956 37.8603 26.8506 37.3854 26.9635 36.9361C27.0763 36.4868 27.4283 36.1367 27.8783 36.0264C28.3282 35.9162 28.8023 36.0638 29.11 36.41L32.34 39.64C32.5752 39.8745 32.7073 40.193 32.7073 40.525C32.7073 40.8571 32.5752 41.1755 32.34 41.41C32.1098 41.6487 31.7917 41.7825 31.46 41.78Z" fill="#5C36CC"/>
<path d="M31.4599 41.78C31.1282 41.7825 30.8101 41.6487 30.5799 41.41C30.3448 41.1755 30.2126 40.8571 30.2126 40.525C30.2126 40.1929 30.3448 39.8745 30.5799 39.64L36.2499 33.94C36.4844 33.7049 36.8028 33.5728 37.1349 33.5728C37.4669 33.5728 37.7854 33.7049 38.0199 33.94C38.4987 34.4328 38.4987 35.2171 38.0199 35.71L32.3399 41.38C32.1149 41.6298 31.796 41.7747 31.4599 41.78Z" fill="#5C36CC"/>
</svg>
