<svg width="13" height="11" viewBox="0 0 13 11" fill="none" xmlns="http://www.w3.org/2000/svg">
<path fill-rule="evenodd" clip-rule="evenodd" d="M0.748215 4.71484H10.2775L6.69157 1.26172C6.53663 1.11784 6.45915 0.94629 6.45915 0.74707C6.45915 0.547851 6.52833 0.373536 6.66667 0.224121C6.80502 0.0747063 6.9738 0 7.17302 0C7.37224 0 7.54932 0.0664056 7.70427 0.199219L12.5851 4.91406C12.7401 5.05794 12.8176 5.23226 12.8176 5.43701C12.8176 5.64177 12.7401 5.81608 12.5851 5.95996L7.67107 10.6914C7.52719 10.8242 7.36117 10.8906 7.17302 10.8906C6.96273 10.8906 6.78565 10.8132 6.64177 10.6582C6.49789 10.5143 6.42872 10.3428 6.43425 10.1436C6.43978 9.94433 6.51449 9.77279 6.65837 9.62891L10.2443 6.17578H0.731614C0.543462 6.17578 0.377448 6.10938 0.233567 5.97656C0.0896859 5.84375 0.0122127 5.68327 0.00114496 5.49512C-0.00992281 5.28483 0.0592497 5.10221 0.208664 4.94727C0.358079 4.79232 0.537928 4.71484 0.748215 4.71484Z" fill="#5C36CC"/>
<mask id="mask0" mask-type="alpha" maskUnits="userSpaceOnUse" x="0" y="0" width="13" height="11">
<path fill-rule="evenodd" clip-rule="evenodd" d="M0.748215 4.71484H10.2775L6.69157 1.26172C6.53663 1.11784 6.45915 0.94629 6.45915 0.74707C6.45915 0.547851 6.52833 0.373536 6.66667 0.224121C6.80502 0.0747063 6.9738 0 7.17302 0C7.37224 0 7.54932 0.0664056 7.70427 0.199219L12.5851 4.91406C12.7401 5.05794 12.8176 5.23226 12.8176 5.43701C12.8176 5.64177 12.7401 5.81608 12.5851 5.95996L7.67107 10.6914C7.52719 10.8242 7.36117 10.8906 7.17302 10.8906C6.96273 10.8906 6.78565 10.8132 6.64177 10.6582C6.49789 10.5143 6.42872 10.3428 6.43425 10.1436C6.43978 9.94433 6.51449 9.77279 6.65837 9.62891L10.2443 6.17578H0.731614C0.543462 6.17578 0.377448 6.10938 0.233567 5.97656C0.0896859 5.84375 0.0122127 5.68327 0.00114496 5.49512C-0.00992281 5.28483 0.0592497 5.10221 0.208664 4.94727C0.358079 4.79232 0.537928 4.71484 0.748215 4.71484Z" fill="white"/>
</mask>
<g mask="url(#mask0)">
<rect x="-6" y="-7" width="24" height="24" fill="white"/>
</g>
</svg>
